<svg width="17" height="17" viewBox="0 0 17 17" fill="none" xmlns="http://www.w3.org/2000/svg">
<g id="proicons:delete" clip-path="url(#clip0_357_1941)">
<path id="Vector" d="M2.60447 4.03212L4.23568 13.885C4.3103 14.3361 4.54262 14.746 4.89126 15.0418C5.23989 15.3375 5.68221 15.4999 6.1394 15.5H8.72402M13.8948 4.03212L12.2644 13.885C12.1897 14.3361 11.9574 14.746 11.6088 15.0418C11.2601 15.3375 10.8178 15.4999 10.3606 15.5H7.77602M6.72303 7.81718V11.7149M9.77701 7.81718V11.7149M1.10913 4.03212H15.3909M10.3938 4.03212V2.65798C10.3938 2.35087 10.2718 2.05633 10.0547 1.83916C9.8375 1.622 9.54296 1.5 9.23585 1.5H7.26419C6.95707 1.5 6.66254 1.622 6.44537 1.83916C6.22821 2.05633 6.10621 2.35087 6.10621 2.65798V4.03212H10.3938Z" stroke="black" stroke-linecap="round" stroke-linejoin="round"/>
</g>
<defs>
<clipPath id="clip0_357_1941">
<rect width="16" height="16" fill="white" transform="translate(0.25 0.5)"/>
</clipPath>
</defs>
</svg>
