<svg width="17" height="17" viewBox="0 0 17 17" fill="none" xmlns="http://www.w3.org/2000/svg">
<g id="majesticons:attachment">
<path id="Vector" d="M7.16667 6.5V9.83333C7.16667 10.187 7.30714 10.5261 7.55719 10.7761C7.80724 11.0262 8.14638 11.1667 8.5 11.1667C8.85362 11.1667 9.19276 11.0262 9.44281 10.7761C9.69286 10.5261 9.83333 10.187 9.83333 9.83333V5.16667C9.83333 4.45942 9.55238 3.78115 9.05229 3.28105C8.55219 2.78095 7.87391 2.5 7.16667 2.5C6.45942 2.5 5.78115 2.78095 5.28105 3.28105C4.78095 3.78115 4.5 4.45942 4.5 5.16667V10.5C4.5 11.5609 4.92143 12.5783 5.67157 13.3284C6.42172 14.0786 7.43913 14.5 8.5 14.5C9.56087 14.5 10.5783 14.0786 11.3284 13.3284C12.0786 12.5783 12.5 11.5609 12.5 10.5V3.83333" stroke="#757575" stroke-linecap="round" stroke-linejoin="round"/>
</g>
</svg>
