<svg width="15" height="15" viewBox="0 0 15 15" fill="none" xmlns="http://www.w3.org/2000/svg">
<path fill-rule="evenodd" clip-rule="evenodd" d="M8.4002 1.7C8.4002 1.3134 8.08679 1 7.7002 1C7.3136 1 7.0002 1.3134 7.0002 1.7V7.00029H1.7C1.3134 7.00029 1 7.31369 1 7.70029C1 8.08689 1.3134 8.40029 1.7 8.40029H7.0002V13.7C7.00019 14.0866 7.3136 14.4 7.70019 14.4C8.08679 14.4 8.40019 14.0866 8.40019 13.7V8.40029H13.7C14.0866 8.40029 14.4 8.08689 14.4 7.70029C14.4 7.31369 14.0866 7.00029 13.7 7.00029H8.4002V1.7Z" fill="#0C1F2B"/>
</svg>
