<svg width="20" height="20" viewBox="0 0 20 20" fill="none" xmlns="http://www.w3.org/2000/svg">
<g id="foundation:arrow-left">
<path id="Vector" d="M10.1737 4.39679L17.4573 9.60779C17.5222 9.65436 17.5751 9.7157 17.6117 9.78674C17.6482 9.85778 17.6673 9.9365 17.6675 10.0164V10.0176C17.6673 10.0978 17.648 10.1768 17.6112 10.248C17.5743 10.3193 17.521 10.3807 17.4557 10.4272L10.1721 15.6046C10.0968 15.6582 10.0082 15.6899 9.91603 15.6964C9.82386 15.7029 9.73169 15.6838 9.64968 15.6412C9.56756 15.5989 9.49869 15.5348 9.45067 15.4559C9.40264 15.377 9.37732 15.2864 9.37748 15.194V12.7574L2.83568 12.7576C2.7696 12.7576 2.70417 12.7446 2.64312 12.7193C2.58206 12.6941 2.52659 12.657 2.47988 12.6103C2.43316 12.5635 2.39612 12.508 2.37086 12.447C2.3456 12.3859 2.33263 12.3205 2.33268 12.2544L2.33288 7.74619C2.33286 7.6801 2.34585 7.61465 2.37113 7.55359C2.39641 7.49253 2.43348 7.43705 2.48021 7.39031C2.52694 7.34358 2.58242 7.30652 2.64348 7.28124C2.70455 7.25596 2.76999 7.24296 2.83608 7.24299H9.37728V4.80579C9.37728 4.61779 9.48328 4.44519 9.65068 4.35839C9.73293 4.31596 9.8253 4.29709 9.91759 4.30387C10.0099 4.31065 10.0985 4.3428 10.1737 4.39679Z" fill="#757575"/>
</g>
</svg>
