<svg width="16" height="16" viewBox="0 0 16 16" fill="none" xmlns="http://www.w3.org/2000/svg">
<g id="majesticons:attachment">
<path id="Vector" d="M6.66667 6V9.33333C6.66667 9.68696 6.80714 10.0261 7.05719 10.2761C7.30724 10.5262 7.64638 10.6667 8 10.6667C8.35362 10.6667 8.69276 10.5262 8.94281 10.2761C9.19286 10.0261 9.33333 9.68696 9.33333 9.33333V4.66667C9.33333 3.95942 9.05238 3.28115 8.55229 2.78105C8.05219 2.28095 7.37391 2 6.66667 2C5.95942 2 5.28115 2.28095 4.78105 2.78105C4.28095 3.28115 4 3.95942 4 4.66667V10C4 11.0609 4.42143 12.0783 5.17157 12.8284C5.92172 13.5786 6.93913 14 8 14C9.06087 14 10.0783 13.5786 10.8284 12.8284C11.5786 12.0783 12 11.0609 12 10V3.33333" stroke="#757575" stroke-linecap="round" stroke-linejoin="round"/>
</g>
</svg>
