<svg width="11" height="10" viewBox="0 0 11 10" fill="none" xmlns="http://www.w3.org/2000/svg">
<g id="bxs:up-arrow">
<path id="Vector" d="M1.75001 1.67789H9.25001C9.32594 1.67813 9.40037 1.69907 9.46529 1.73847C9.5302 1.77786 9.58315 1.83421 9.61842 1.90146C9.65369 1.9687 9.66996 2.04429 9.66546 2.12009C9.66097 2.1959 9.63589 2.26904 9.59292 2.33164L5.84292 7.74831C5.68751 7.97289 5.31334 7.97289 5.15751 7.74831L1.40751 2.33164C1.3641 2.26917 1.33864 2.19599 1.33391 2.12006C1.32917 2.04413 1.34533 1.96836 1.38064 1.90097C1.41594 1.83359 1.46904 1.77716 1.53416 1.73783C1.59928 1.6985 1.67393 1.67777 1.75001 1.67789Z" fill="white"/>
</g>
</svg>
