<svg width="19" height="19" viewBox="0 0 19 19" fill="none" xmlns="http://www.w3.org/2000/svg">
<g id="akar-icons:check-box-fill">
<path id="Vector" fill-rule="evenodd" clip-rule="evenodd" d="M5.54158 1.58301C4.49177 1.58301 3.48495 2.00005 2.74262 2.74238C2.00029 3.48471 1.58325 4.49153 1.58325 5.54134V13.458C1.58325 14.5078 2.00029 15.5146 2.74262 16.257C3.48495 16.9993 4.49177 17.4163 5.54158 17.4163H13.4583C14.5081 17.4163 15.5149 16.9993 16.2572 16.257C16.9995 15.5146 17.4166 14.5078 17.4166 13.458V5.54134C17.4166 4.49153 16.9995 3.48471 16.2572 2.74238C15.5149 2.00005 14.5081 1.58301 13.4583 1.58301H5.54158ZM12.4528 8.45784C12.5239 8.38195 12.5794 8.29279 12.6161 8.19546C12.6527 8.09813 12.6698 7.99454 12.6665 7.89059C12.6631 7.78664 12.6393 7.68438 12.5964 7.58964C12.5535 7.4949 12.4923 7.40954 12.4164 7.33842C12.3405 7.26731 12.2514 7.21185 12.154 7.17519C12.0567 7.13854 11.9531 7.12141 11.8492 7.12479C11.7452 7.12818 11.643 7.152 11.5482 7.1949C11.4535 7.2378 11.3681 7.29895 11.297 7.37484L8.85629 9.97942L7.65058 8.9083C7.49261 8.77698 7.28978 8.7122 7.08494 8.72766C6.88009 8.74311 6.68928 8.83759 6.5528 8.99112C6.41632 9.14466 6.34487 9.34524 6.35354 9.55048C6.36221 9.75573 6.45031 9.94956 6.59925 10.091L8.3805 11.6744C8.53463 11.8113 8.73608 11.8827 8.94202 11.8734C9.14797 11.864 9.34215 11.7748 9.48329 11.6245L12.4528 8.45784Z" fill="#3569E7"/>
</g>
</svg>
