<svg width="11" height="10" viewBox="0 0 11 10" fill="none" xmlns="http://www.w3.org/2000/svg">
<g id="bxs:up-arrow">
<path id="Vector" d="M1.75001 8.32211H9.25001C9.32594 8.32187 9.40037 8.30093 9.46529 8.26153C9.5302 8.22214 9.58315 8.16579 9.61842 8.09854C9.65369 8.0313 9.66996 7.95571 9.66546 7.87991C9.66097 7.8041 9.63589 7.73096 9.59292 7.66836L5.84292 2.25169C5.68751 2.02711 5.31334 2.02711 5.15751 2.25169L1.40751 7.66836C1.3641 7.73083 1.33864 7.80401 1.33391 7.87994C1.32917 7.95587 1.34533 8.03164 1.38064 8.09903C1.41594 8.16641 1.46904 8.22284 1.53416 8.26217C1.59928 8.3015 1.67393 8.32223 1.75001 8.32211Z" fill="white"/>
</g>
</svg>
