<svg width="20" height="20" viewBox="0 0 20 20" fill="none" xmlns="http://www.w3.org/2000/svg">
<g id="foundation:arrow-left">
<path id="Vector" d="M9.82632 4.39679L2.54272 9.60779C2.47781 9.65436 2.42489 9.7157 2.38835 9.78674C2.3518 9.85778 2.33266 9.9365 2.33252 10.0164V10.0176C2.33269 10.0978 2.35199 10.1768 2.38883 10.248C2.42567 10.3193 2.47897 10.3807 2.54432 10.4272L9.82792 15.6046C9.90319 15.6582 9.9918 15.6899 10.084 15.6964C10.1761 15.7029 10.2683 15.6838 10.3503 15.6412C10.4324 15.5989 10.5013 15.5348 10.5493 15.4559C10.5974 15.377 10.6227 15.2864 10.6225 15.194V12.7574L17.1643 12.7576C17.2304 12.7576 17.2958 12.7446 17.3569 12.7193C17.4179 12.6941 17.4734 12.657 17.5201 12.6103C17.5668 12.5635 17.6039 12.508 17.6291 12.447C17.6544 12.3859 17.6674 12.3205 17.6673 12.2544L17.6671 7.74619C17.6671 7.6801 17.6541 7.61465 17.6289 7.55359C17.6036 7.49253 17.5665 7.43705 17.5198 7.39031C17.4731 7.34358 17.4176 7.30652 17.3565 7.28124C17.2955 7.25596 17.23 7.24296 17.1639 7.24299H10.6227V4.80579C10.6227 4.61779 10.5167 4.44519 10.3493 4.35839C10.2671 4.31596 10.1747 4.29709 10.0824 4.30387C9.99011 4.31065 9.90148 4.3428 9.82632 4.39679Z" fill="#757575"/>
</g>
</svg>
