<svg width="16" height="17" viewBox="0 0 16 17" fill="none" xmlns="http://www.w3.org/2000/svg">
<path d="M7.0667 11.1667C7.0667 10.2667 7.14737 9.61956 7.3087 9.22533C7.47003 8.83111 7.81159 8.40044 8.33337 7.93333C8.78892 7.53333 9.13625 7.18622 9.37537 6.892C9.61448 6.59778 9.73381 6.26156 9.73337 5.88333C9.73337 5.42778 9.5807 5.05 9.27537 4.75C8.97003 4.45 8.54492 4.3 8.00003 4.3C7.43337 4.3 7.00292 4.47222 6.7087 4.81667C6.41448 5.16111 6.20603 5.51111 6.08337 5.86667L4.3667 5.13333C4.60003 4.42222 5.02781 3.80556 5.65003 3.28333C6.27225 2.76111 7.05559 2.5 8.00003 2.5C9.1667 2.5 10.064 2.82511 10.692 3.47533C11.32 4.12556 11.6338 4.906 11.6334 5.81667C11.6334 6.37222 11.514 6.84733 11.2754 7.242C11.0367 7.63667 10.6616 8.08378 10.15 8.58333C9.60559 9.10556 9.27514 9.50289 9.1587 9.77533C9.04225 10.0478 8.98381 10.5116 8.98337 11.1667H7.0667ZM8.00003 15.1667C7.63337 15.1667 7.31959 15.0362 7.0587 14.7753C6.79781 14.5144 6.66714 14.2004 6.6667 13.8333C6.66625 13.4662 6.79692 13.1524 7.0587 12.892C7.32048 12.6316 7.63425 12.5009 8.00003 12.5C8.36581 12.4991 8.67981 12.6298 8.94203 12.892C9.20426 13.1542 9.3347 13.468 9.33337 13.8333C9.33203 14.1987 9.20159 14.5127 8.94203 14.7753C8.68248 15.038 8.36848 15.1684 8.00003 15.1667Z" fill="white"/>
</svg>
