<svg width="26" height="26" viewBox="0 0 26 26" fill="none" xmlns="http://www.w3.org/2000/svg">
<path d="M17.667 4.74934C17.0278 4.74934 16.7072 4.74934 16.4157 4.641L16.2955 4.59117C16.0127 4.46117 15.7863 4.23584 15.3335 3.783C14.2913 2.74084 13.7702 2.21975 13.13 2.171C13.0434 2.1658 12.9566 2.1658 12.87 2.171C12.2297 2.21975 11.7087 2.74084 10.6665 3.783C10.2137 4.23584 9.98724 4.46225 9.70449 4.59117L9.58532 4.641C9.29282 4.74934 8.97324 4.74934 8.33299 4.74934H8.21382C6.58124 4.74934 5.7644 4.74934 5.25632 5.25634C4.74824 5.76334 4.74932 6.58125 4.74932 8.21384V8.333C4.74932 8.97217 4.74932 9.29284 4.64099 9.58425C4.6251 9.62542 4.60849 9.6655 4.59115 9.7045C4.46115 9.98725 4.23582 10.2137 3.78299 10.6665C2.74082 11.7087 2.21974 12.2298 2.17099 12.87C2.16578 12.9566 2.16578 13.0434 2.17099 13.13C2.21974 13.7703 2.74082 14.2913 3.78299 15.3335C4.23582 15.7863 4.46224 16.0128 4.59115 16.2955C4.60921 16.3345 4.62582 16.3742 4.64099 16.4147C4.74932 16.7072 4.74932 17.0268 4.74932 17.667V17.7862C4.74932 19.4188 4.74932 20.2356 5.25632 20.7437C5.76332 21.2518 6.58124 21.2507 8.21382 21.2507H8.33299C8.97215 21.2507 9.29282 21.2507 9.58424 21.359C9.6254 21.3742 9.66549 21.3908 9.70449 21.4088C9.98724 21.5388 10.2137 21.7642 10.6665 22.217C11.7087 23.2592 12.2297 23.7803 12.87 23.829C12.9567 23.8355 13.0433 23.8355 13.13 23.829C13.7702 23.7803 14.2913 23.2592 15.3335 22.217C15.7863 21.7642 16.0127 21.5388 16.2955 21.4088C16.3345 21.3908 16.3742 21.3742 16.4147 21.359C16.7072 21.2507 17.0267 21.2507 17.667 21.2507H17.7862C19.4187 21.2507 20.2356 21.2507 20.7437 20.7437C21.2517 20.2367 21.2507 19.4188 21.2507 17.7862V17.667C21.2507 17.0278 21.2507 16.7072 21.359 16.4158C21.3742 16.3746 21.3908 16.3345 21.4088 16.2955C21.5388 16.0128 21.7642 15.7863 22.217 15.3335C23.2592 14.2913 23.7802 13.7703 23.829 13.13C23.8355 13.0433 23.8355 12.9567 23.829 12.87C23.7802 12.2298 23.2592 11.7087 22.217 10.6665C21.7642 10.2137 21.5388 9.98725 21.4088 9.7045L21.359 9.58534C21.2507 9.29284 21.2507 8.97325 21.2507 8.333V8.21384C21.2507 6.58125 21.2507 5.76442 20.7437 5.25634C20.2367 4.74825 19.4187 4.74934 17.7862 4.74934H17.667Z" stroke="#3569E7" stroke-width="2" stroke-linecap="round" stroke-linejoin="round"/>
<path d="M16.7916 13C16.7916 13.4979 16.6936 13.991 16.503 14.451C16.3125 14.911 16.0332 15.329 15.6811 15.6811C15.329 16.0332 14.911 16.3125 14.451 16.5031C13.991 16.6936 13.4979 16.7917 13 16.7917C12.5021 16.7917 12.009 16.6936 11.549 16.5031C11.0889 16.3125 10.671 16.0332 10.3189 15.6811C9.96678 15.329 9.68749 14.911 9.49694 14.451C9.30639 13.991 9.20831 13.4979 9.20831 13C9.20831 11.9944 9.60779 11.03 10.3189 10.3189C11.0299 9.60782 11.9944 9.20834 13 9.20834C14.0056 9.20834 14.97 9.60782 15.6811 10.3189C16.3922 11.03 16.7916 11.9944 16.7916 13Z" stroke="#3569E7" stroke-width="2" stroke-linecap="round" stroke-linejoin="round"/>
</svg>
